HIERARCHY
ROOT Hips
{
 OFFSET 0.000000 0.000000 0.000000
 CHANNELS 6 Xposition Yposition Zposition Yrotation Xrotation Zrotation
 JOINT Chest
 {
  OFFSET 0.000000 9.910571 -0.011835
  CHANNELS 3 Yrotation Xrotation Zrotation
  JOINT Chest2
  {
   OFFSET 0.000000 10.789473 0.021497
   CHANNELS 3 Yrotation Xrotation Zrotation
   JOINT Chest3
   {
    OFFSET 0.000000 9.748205 0.000000
    CHANNELS 3 Yrotation Xrotation Zrotation
    JOINT Chest4
    {
     OFFSET 0.000000 9.748205 0.000000
     CHANNELS 3 Yrotation Xrotation Zrotation
     JOINT Neck
     {
      OFFSET 0.000000 13.998479 0.000000
      CHANNELS 3 Yrotation Xrotation Zrotation
      JOINT Head
      {
       OFFSET 0.000000 9.082285 0.051121
       CHANNELS 3 Yrotation Xrotation Zrotation
       End Site
       {
        OFFSET 0.000000 17.246134 0.026702
       }
      }
     }
     JOINT RightCollar
     {
      OFFSET -3.284495 7.824262 0.000000
      CHANNELS 3 Yrotation Xrotation Zrotation
      JOINT RightShoulder
      {
       OFFSET -15.534540 0.000000 0.000000
       CHANNELS 3 Yrotation Xrotation Zrotation
       JOINT RightElbow
       {
        OFFSET 0.000000 -28.251216 0.000000
        CHANNELS 3 Yrotation Xrotation Zrotation
        JOINT RightWrist
        {
         OFFSET 0.000000 -23.418114 0.012537
         CHANNELS 3 Yrotation Xrotation Zrotation
         End Site
         {
          OFFSET 0.000000 -17.723959 0.000000
         }
        }
       }
      }
     }
     JOINT LeftCollar
     {
      OFFSET 3.284495 7.824262 0.000000
      CHANNELS 3 Yrotation Xrotation Zrotation
      JOINT LeftShoulder
      {
       OFFSET 15.534540 0.000000 0.000000
       CHANNELS 3 Yrotation Xrotation Zrotation
       JOINT LeftElbow
       {
        OFFSET 0.000000 -28.251216 0.000000
        CHANNELS 3 Yrotation Xrotation Zrotation
        JOINT LeftWrist
        {
         OFFSET 0.000000 -23.418114 0.012537
         CHANNELS 3 Yrotation Xrotation Zrotation
         End Site
         {
          OFFSET 0.000000 -17.723959 0.000000
         }
        }
       }
      }
     }
    }
   }
  }
 }
 JOINT RightHip
 {
  OFFSET -8.142657 0.057990 0.005917
  CHANNELS 3 Yrotation Xrotation Zrotation
  JOINT RightKnee
  {
   OFFSET 0.000000 -49.716894 0.008478
   CHANNELS 3 Yrotation Xrotation Zrotation
   JOINT RightAnkle
   {
    OFFSET 0.000000 -43.994153 0.004166
    CHANNELS 3 Yrotation Xrotation Zrotation
    JOINT RightToe
    {
     OFFSET 0.000000 -7.619154 17.822051
     CHANNELS 3 Yrotation Xrotation Zrotation
     End Site
     {
      OFFSET 0.000000 -1.595627 7.159905
     }
    }
   }
  }
 }
 JOINT LeftHip
 {
  OFFSET 8.142657 0.057990 0.005917
  CHANNELS 3 Yrotation Xrotation Zrotation
  JOINT LeftKnee
  {
   OFFSET 0.000000 -49.716894 0.008478
   CHANNELS 3 Yrotation Xrotation Zrotation
   JOINT LeftAnkle
   {
    OFFSET 0.000000 -43.994153 0.004166
    CHANNELS 3 Yrotation Xrotation Zrotation
    JOINT LeftToe
    {
     OFFSET 0.000000 -7.619154 17.822051
     CHANNELS 3 Yrotation Xrotation Zrotation
     End Site
     {
      OFFSET 0.000000 -1.595627 7.159905
     }
    }
   }
  }
 }
}
MOTION
Frames: 12
Frame Time: 0.008333
245.321248 56.601655 264.075371 -53.828028 -55.834716 2.745948 -2.100126 21.094796 -1.768153 -0.780901 9.375305 -0.715807 -0.780901 9.375305 -0.715807 -0.573293 7.032415 -0.523576 1.816112 19.140538 1.065303 2.985362 -0.642951 1.371727 -1.239694 9.399887 12.718820 24.260048 -17.863867 -24.520376 -4.301168 -43.256551 34.783414 2.115359 -9.437474 -9.200520 -1.055399 11.360765 -9.837651 -7.886684 -19.146800 17.549338 22.385879 -45.672373 -32.725943 -2.800011 4.464492 -10.795731 -7.431018 -31.341196 -9.470606 -93.160687 73.645140 -108.690714 -3.330405 -4.930918 7.921126 0.055528 0.204319 0.007439 4.614785 -31.751975 11.894059 77.582114 85.267138 80.087940 -0.871519 0.942309 -1.088531 -0.084649 -0.155865 -0.032244
245.321382 56.588690 264.073815 -53.855414 -55.828872 2.769410 -2.094817 21.080779 -1.778903 -0.780913 9.372320 -0.717716 -0.780913 9.372320 -0.717716 -0.573277 7.030179 -0.525009 1.823257 19.133960 1.067038 2.997898 -0.655156 1.372523 -1.236261 9.410903 12.723153 24.243552 -17.867770 -24.510006 -4.283322 -43.251055 34.780974 2.106317 -9.437579 -9.186483 -1.037411 11.383368 -9.834228 -7.885792 -19.152540 17.547713 22.352984 -45.669130 -32.754430 -2.773508 4.452055 -10.730341 -7.418867 -31.349760 -9.473980 -93.146963 73.657428 -108.670559 -3.306222 -4.896797 7.866051 0.048497 0.177134 0.042603 4.624743 -31.760590 11.901683 77.627429 85.271420 80.127277 -0.879417 0.938212 -1.090471 -0.075619 -0.152170 -0.029653
245.321899 56.590233 264.071686 -53.853515 -55.836125 2.761246 -2.094191 21.079271 -1.775346 -0.780711 9.370180 -0.718758 -0.780711 9.370180 -0.718758 -0.573113 7.028575 -0.525795 1.825451 19.129228 1.069887 3.001011 -0.663977 1.376965 -1.243949 9.419074 12.722988 24.231756 -17.869678 -24.498122 -4.268407 -43.249305 34.782478 2.094434 -9.438649 -9.189699 -1.033635 11.395378 -9.830399 -7.888966 -19.148475 17.543515 22.351115 -45.657229 -32.749683 -2.777561 4.441898 -10.733382 -7.427650 -31.347750 -9.462135 -93.119173 73.660164 -108.638128 -3.284049 -4.883692 7.788898 0.047481 0.178352 0.088280 4.617800 -31.751672 11.913313 77.558932 85.271799 80.056814 -0.882743 0.939398 -1.091166 -0.071200 -0.150687 -0.028878
245.321698 56.597826 264.067746 -53.848400 -55.851535 2.743397 -2.094397 21.082383 -1.762044 -0.779636 9.368722 -0.718759 -0.779636 9.368722 -0.718759 -0.572311 7.027480 -0.525815 1.826965 19.123246 1.073381 3.002677 -0.675131 1.382782 -1.265253 9.428242 12.720123 24.228059 -17.865864 -24.494432 -4.255074 -43.243889 34.791205 2.087884 -9.444640 -9.199272 -1.038498 11.415061 -9.830043 -7.889730 -19.149817 17.542052 22.329422 -45.651144 -32.778847 -2.758417 4.427369 -10.673829 -7.440655 -31.330846 -9.442059 -93.050683 73.657289 -108.564071 -3.258265 -4.868155 7.701385 0.050885 0.185784 0.134254 4.603519 -31.734294 11.930292 77.511970 85.263045 80.010643 -0.889161 0.945022 -1.090755 -0.073329 -0.154421 -0.031894
245.322998 56.606016 264.064382 -53.834466 -55.868750 2.718787 -2.098472 21.085439 -1.751678 -0.780866 9.367457 -0.718389 -0.780866 9.367457 -0.718389 -0.573239 7.026532 -0.525521 1.826850 19.117443 1.075814 3.001697 -0.685945 1.387181 -1.269044 9.430719 12.714848 24.221879 -17.858342 -24.477289 -4.239794 -43.242681 34.776902 2.067514 -9.449085 -9.194176 -1.040304 11.425354 -9.834473 -7.891600 -19.150063 17.545526 22.330775 -45.630982 -32.780421 -2.774431 4.425188 -10.663012 -7.460880 -31.312730 -9.427566 -92.990489 73.665453 -108.497744 -3.231797 -4.847419 7.616243 0.048990 0.189092 0.166584 4.583160 -31.715316 11.950607 77.465867 85.263749 79.960383 -0.893638 0.946786 -1.086811 -0.074343 -0.155901 -0.034135
245.324493 56.614482 264.061763 -53.832264 -55.880519 2.711860 -2.094005 21.089584 -1.741709 -0.778629 9.366290 -0.716345 -0.778629 9.366290 -0.716345 -0.571598 7.025652 -0.524028 1.819879 19.111137 1.077618 2.988365 -0.697715 1.392606 -1.292426 9.426095 12.706768 24.218865 -17.849471 -24.466085 -4.227654 -43.239630 34.779197 2.047280 -9.455525 -9.193656 -1.055461 11.433910 -9.839787 -7.899969 -19.148921 17.547907 22.298826 -45.620370 -32.800871 -2.758210 4.418747 -10.609846 -7.464526 -31.299365 -9.422218 -92.946035 73.667472 -108.445728 -3.205505 -4.832306 7.532777 0.046020 0.194980 0.194387 4.579009 -31.698780 11.955791 77.371801 85.264139 79.869559 -0.897837 0.949050 -1.089529 -0.071483 -0.156389 -0.033893
245.326913 56.621386 264.060091 -53.821128 -55.888921 2.700041 -2.100454 21.086030 -1.736645 -0.780190 9.364452 -0.717207 -0.780190 9.364452 -0.717207 -0.572756 7.024276 -0.524651 1.818814 19.107483 1.079730 2.985746 -0.704538 1.396755 -1.295024 9.430938 12.701798 24.209180 -17.847083 -24.451951 -4.210811 -43.236271 34.773142 2.035726 -9.459808 -9.189132 -1.055568 11.444417 -9.845482 -7.909350 -19.142284 17.549262 22.290942 -45.611262 -32.789828 -2.764440 4.415760 -10.601863 -7.467100 -31.292874 -9.418808 -92.927074 73.670705 -108.420761 -3.179796 -4.817396 7.449651 0.042833 0.199784 0.219697 4.561995 -31.689895 11.958919 77.363980 85.263295 79.858444 -0.896113 0.957613 -1.092493 -0.071068 -0.163612 -0.033777
245.327923 56.628262 264.057338 -53.813045 -55.894464 2.687532 -2.097618 21.085258 -1.723404 -0.780193 9.362656 -0.715161 -0.780193 9.362656 -0.715161 -0.572792 7.022927 -0.523123 1.811407 19.106379 1.079833 2.972152 -0.706624 1.399288 -1.300773 9.435070 12.696395 24.199557 -17.843716 -24.447199 -4.204699 -43.240783 34.772990 2.022137 -9.455515 -9.192624 -1.072123 11.451462 -9.852499 -7.921685 -19.138903 17.548650 22.259115 -45.606078 -32.803881 -2.737238 4.409059 -10.536565 -7.471308 -31.285524 -9.402655 -92.894551 73.666859 -108.383399 -3.168285 -4.803141 7.371910 0.046912 0.207094 0.237794 4.546859 -31.681202 11.968838 77.295163 85.275337 79.784623 -0.881575 0.958617 -1.092377 -0.069212 -0.163680 -0.033993
245.327566 56.636646 264.053642 -53.818285 -55.903974 2.684649 -2.095966 21.084447 -1.715831 -0.779536 9.360496 -0.714715 -0.779536 9.360496 -0.714715 -0.572311 7.021305 -0.522803 1.809405 19.106684 1.080924 2.968137 -0.706083 1.401929 -1.300760 9.447745 12.693206 24.197648 -17.847303 -24.444778 -4.196373 -43.234693 34.773409 2.003665 -9.460650 -9.198074 -1.081435 11.461770 -9.861129 -7.922902 -19.134688 17.555173 22.247920 -45.591188 -32.792487 -2.734675 4.405695 -10.524590 -7.471440 -31.272065 -9.388841 -92.846962 73.660182 -108.333245 -3.144149 -4.789848 7.307064 0.043379 0.214404 0.241562 4.543553 -31.666201 11.975549 77.210051 85.273672 79.706480 -0.883297 0.959908 -1.102015 -0.064384 -0.163967 -0.032292
245.329700 56.643516 264.052034 -53.815828 -55.905782 2.689215 -2.098041 21.079315 -1.718082 -0.780896 9.360280 -0.714490 -0.780896 9.360280 -0.714490 -0.573332 7.021144 -0.522614 1.805033 19.105239 1.080305 2.960332 -0.708776 1.402166 -1.295125 9.449969 12.694406 24.194409 -17.849902 -24.440146 -4.180266 -43.229020 34.764230 1.983392 -9.462391 -9.207777 -1.089090 11.460858 -9.864384 -7.917040 -19.131619 17.557058 22.205409 -45.580895 -32.817667 -2.699293 4.395562 -10.448592 -7.460196 -31.275631 -9.398949 -92.870828 73.677693 -108.353931 -3.134572 -4.767224 7.262136 0.034249 0.207449 0.231404 4.537571 -31.658328 11.967031 77.124302 85.265696 79.619419 -0.887213 0.967921 -1.107994 -0.057198 -0.167553 -0.031572
245.329778 56.649776 264.049159 -53.812278 -55.910044 2.683148 -2.097814 21.077009 -1.714138 -0.781413 9.359167 -0.714402 -0.781413 9.359167 -0.714402 -0.573723 7.020311 -0.522542 1.801262 19.104174 1.080624 2.953326 -0.710775 1.403937 -1.294224 9.460367 12.698197 24.200332 -17.850361 -24.441619 -4.177709 -43.228578 34.760958 1.969247 -9.462466 -9.207115 -1.088809 11.460867 -9.860543 -7.923207 -19.129165 17.554283 22.194610 -45.557579 -32.810887 -2.701831 4.387496 -10.445353 -7.455735 -31.267961 -9.393617 -92.875724 73.690573 -108.352130 -3.138845 -4.756729 7.228090 0.034446 0.211371 0.214682 4.519653 -31.649810 11.972823 77.094993 85.261689 79.585653 -0.884994 0.971563 -1.113428 -0.055062 -0.169618 -0.031871
245.330580 56.655055 264.048463 -53.810796 -55.910012 2.690009 -2.100173 21.072658 -1.719847 -0.781377 9.357055 -0.713610 -0.781377 9.357055 -0.713610 -0.573710 7.018726 -0.521954 1.794607 19.105846 1.078956 2.941672 -0.707676 1.403030 -1.296210 9.471002 12.702251 24.193577 -17.854086 -24.452960 -4.173249 -43.228715 34.771834 1.952617 -9.455317 -9.206692 -1.097573 11.462812 -9.865704 -7.920797 -19.129763 17.558104 22.156302 -45.541674 -32.837291 -2.675558 4.378879 -10.385007 -7.440084 -31.267119 -9.403541 -92.897418 73.700160 -108.372530 -3.134089 -4.749555 7.212505 0.024700 0.213524 0.192055 4.519903 -31.645793 11.964350 77.025474 85.261105 79.512558 -0.881586 0.978107 -1.112315 -0.053245 -0.172448 -0.031269
